<?xml version="1.0" encoding="utf-8"?>
<!-- Generator: Adobe Illustrator 19.0.0, SVG Export Plug-In . SVG Version: 6.00 Build 0)  -->
<svg version="1.1" id="Layer_1" xmlns="http://www.w3.org/2000/svg" xmlns:xlink="http://www.w3.org/1999/xlink" x="0px" y="0px"
	 viewBox="0 0 217 58" style="enable-background:new 0 0 217 58;" xml:space="preserve">
<style type="text/css">
	.st0{fill:#FFFFFF;}
</style>
<g id="XMLID_301_">
	<g id="XMLID_32_">
		<path id="XMLID_119_" class="st0" d="M41.8,46.3c-2,0.9-3.5,3.3-5.7,4.1c-6.3,2.3-12.8-2.2-18.3-4.9c-1.9-0.9-3.8-0.3-5.3,0.9
			c-0.1,0.2-0.3,0.3-0.5,0.4c-0.4,0.2-1.1,0.4-1.2,0.4c-0.1-0.1-0.1-0.2,0-0.3c0.4-0.5,0.2-1,0-1.5c-0.3-0.7-0.6-1.4-1-2.1
			c-0.9-2-1.7-4.1-2.5-6.1c-0.3-0.8-0.7-1.5-1-2.3c-0.5-1.1-0.9-2.2-1.3-3.4c-0.5-1.1-1-2.1-1.5-3.2c-0.1-0.3-0.4-0.4-0.7-0.6
			c-0.1-0.1-0.4,0-0.5-0.1c-0.1-0.1,0-0.2,0-0.2c0.1-0.1,0.3-0.3,0.4-0.3c0.8-0.4,1.6-0.8,2.5-1.2c1-0.4,1.9-0.8,2.9-1.1
			c0.1-0.1,0.3-0.1,0.4,0c0.1,0.1,0.1,0.3,0,0.4c-0.2,0.4-0.1,0.8,0,1.1C8.9,27,9,27.6,9.1,28c0.4,1.3,0.9,2.7,1.4,4
			c1,2.3,2,4.6,3,7c0.4,0.9,0.7,1.8,1.1,2.7c0.6-0.2,1.2-0.4,1.9-0.4c1.3-0.1,2.6,0.3,3.9,0.8c3.7,1.6,8.8,6.2,13,4.9
			c1.1-0.4,2.3-0.8,3-2.1c0.2-0.4,0.3-0.8,0.5-1.2C37,42.7,42.6,46,41.8,46.3z"/>
		<path id="XMLID_112_" class="st0" d="M40.6,36.6c-0.5,0.2-1.2,0.3-1.8,0.5c-1.2,0.3-2.4,0.7-3.6,1.1c-0.1,0,0-0.3,0-0.3
			c0.1-0.3,0-0.5-0.1-0.8c-0.3-0.7-0.7-1.3-1.2-1.9c-0.1-0.2-0.2-0.3-0.5-0.2c-0.3,0.1-0.7,0.2-1.1,0.3c-0.3,0.1-0.7,0.3-1,0.5
			c-0.4,0.1-0.9,0.2-1.4,0.4c-0.3,0.1-0.8,0.2-1.1,0.4c-0.3,0.1-0.7,0.2-1,0.4c-0.2,0.1-0.1,0.5,0,0.7c0.1,0.4,0.1,0.8,0.1,1.2
			c0,0.3-0.1,0.7,0,1c0.1,0.2,0.4,0.3,0.6,0.5c0.3,0.3-0.4,0.5-0.6,0.6c-0.9,0.5-2.3,0.8-3.4,1.2c-0.3,0.1-0.7,0.2-1,0.3
			c-0.2,0.1-0.5,0.3-0.7,0.2c-0.3-0.2,0-0.8,0-1.1c0.3-1.3,0.4-2.5,0.3-3.8c-0.2-1.6-0.1-3.2-0.2-4.8c-0.1-1.5,0-3.1,0-4.6
			c0-1.6,0.1-3.2-0.1-4.7c-0.1-0.8-0.1-1.5-0.3-2.2c-0.1-0.3-0.2-0.5-0.4-0.8c-0.1-0.2-0.3-0.4-0.1-0.6c0.2-0.2,0.8-0.2,1-0.3
			c0.5-0.2,0.9-0.3,1.3-0.4c0.9-0.3,1.8-0.6,2.7-0.9c0.4-0.1,0.8-0.4,1.1-0.4c0.3-0.1,0.2,0.3,0.2,0.5c0,0.8,0.4,1.4,0.8,2
			c0.8,1.3,1.7,2.6,2.5,3.8c0.8,1.2,1.7,2.6,2.6,3.8c0.9,1.2,1.7,2.6,2.6,3.8c0.3,0.5,0.7,0.9,1,1.3c0.3,0.4,0.6,1,0.9,1.4
			c0.3,0.4,0.6,0.8,0.9,1.2c0.3,0.4,0.6,0.3,1,0.5S40.8,36.5,40.6,36.6z M31.4,31.3c-1.2-1.7-2.5-3.4-3.7-5c0,1,0,2-0.1,3
			c0,0.6,0.1,1.1,0.1,1.6c0,0.6-0.1,1.1,0,1.7c0.6-0.2,1.2-0.5,1.8-0.7S30.8,31.5,31.4,31.3z M35.2,38.2c0.1,0,0.3-0.1,0.4-0.1
			C35.5,38.1,35.2,38.2,35.2,38.2z M35.2,38.2c0,0,0.1,0,0.2-0.1C35.4,38.2,35.3,38.2,35.2,38.2z M35.6,38.1c-0.1,0-0.1,0-0.2,0.1
			C35.7,38.1,35.7,38.1,35.6,38.1z M35.6,38.1C35.7,38.1,35.7,38.1,35.6,38.1C35.7,38.1,35.6,38.1,35.6,38.1z"/>
		<path id="XMLID_110_" class="st0" d="M78.8,33.7c0.6,0.6,1.2,1.2,1.9,1.8c0.4,0.4,0.9,0.9,1.2,1.5c0.2,0.5-0.5,0.8-0.9,1
			c-1.2,0.8-2.6,1.7-3.9,2.2c-1.4,0.5-3,0.5-4.4,0.3c-1.4-0.1-2.9-0.6-4.2-1.2c-1.3-0.6-2.4-1.6-3.7-2.3c-0.6-0.4-1.2-0.7-1.8-1.1
			c-0.6-0.4-1.2-0.9-1.8-1.3c-1.2-0.8-2.4-1.5-3.9-1.3c-1.5,0.1-2.9,1.1-4.1,1.9c-0.5,0.3-1,0.7-1.5,0.8c-0.7,0.2-0.6-0.4-0.5-0.9
			c0.2-1.5,0.6-3,0.9-4.5c0.3-1.5,0.5-3.1,0.9-4.5c0.4-1.5,0.9-2.9,1.3-4.4c0.4-1.5,1-3,1.5-4.5c0.4-1.4,0.6-2.9,1.1-4.3
			c0.2-0.8,0.6-1.6,1-2.4c0.1-0.3,0.3-0.6,0.3-0.9c0-0.5-0.5-0.2-0.8-0.2c-1.7,0.2-3.3,0.7-4.9,1.1c-0.8,0.2-1.6,0.3-2.3,0.6
			c-0.8,0.3-1.4,0.8-2.2,1.1c0-0.4-0.1-0.7-0.1-1.1c0-0.4,0.1-0.8,0.1-1.1c0.1-0.7,0-1.6,0.3-2.4C48.1,7,48.5,6.8,49,6.6
			c0.9-0.3,1.8-0.4,2.8-0.6c3.7-0.8,7.6-1.4,11.2-2.1c0.8-0.2,1.7-0.4,2.5-0.4c0.6,0,0.5,0.4,0.4,0.8c-0.1,0.4-0.2,0.7-0.4,1.1
			C65.2,6,65,6.8,64.7,7.6c-1,3.1-2.4,6-3.4,9.1c-1.1,3-1.9,6.2-2.7,9.3c-0.1,0.4-0.9,2.5-0.2,2.7c0.3,0.1,0.8-0.1,1.1-0.2
			c0.3,0,0.7,0,1.1,0c0.8,0.1,1.4,0.3,2.1,0.6c2.7,1.3,4.7,3.6,7.1,5.4c1.2,0.8,2.9,1.3,4.3,1.2c1.2-0.1,2.2-0.9,2.8-1.9
			c0-0.1,0.4-1,0.5-0.9c-0.1,0-0.1,0.2-0.1,0.2c0,0,0.1-0.2,0.1-0.2c0,0.1-0.1,0.1-0.1,0.2c0-0.1,0-0.1,0.1-0.1c0.2-0.5-0.2,0.4,0,0
			C77.5,32.5,78.7,33.6,78.8,33.7z"/>
		<path id="XMLID_103_" class="st0" d="M84.6,28.2c-0.6,0.1-1.2,0.1-1.8,0.2c-1.2,0.1-2.4,0.3-3.7,0.4c-0.1,0,0-0.3,0-0.3
			c0.1-0.3,0.1-0.5,0.1-0.8c-0.2-0.7-0.5-1.4-0.8-2.1c-0.1-0.2-0.1-0.4-0.4-0.3c-0.4,0-0.7,0-1.1,0.1c-0.4,0-0.7,0.2-1.1,0.3
			c-0.4,0.1-0.9,0.1-1.4,0.1c-0.3,0-0.8,0.1-1.1,0.2c-0.3,0.1-0.7,0.1-1,0.2c-0.2,0.1-0.2,0.5-0.2,0.7c0,0.4-0.1,0.8-0.1,1.2
			c-0.1,0.3-0.2,0.7-0.1,0.9c0.1,0.2,0.3,0.4,0.5,0.6c0.2,0.3-0.5,0.4-0.7,0.5c-1,0.3-2.4,0.4-3.5,0.5c-0.3,0.1-0.7,0.1-1,0.1
			c-0.2,0-0.6,0.2-0.7,0c-0.2-0.2,0.1-0.8,0.2-1c0.6-1.2,0.8-2.4,0.9-3.7c0.1-1.6,0.5-3.1,0.6-4.7c0.2-1.5,0.5-3.1,0.8-4.6
			c0.3-1.5,0.7-3.1,0.8-4.6c0.1-0.8,0.2-1.5,0.1-2.2c0-0.3-0.1-0.6-0.2-0.8c0-0.2-0.2-0.5,0-0.6c0.2-0.1,0.8-0.1,1-0.1
			C71.1,8.2,71.6,8.1,72,8c0.9-0.1,1.9-0.3,2.8-0.4c0.4-0.1,0.8-0.2,1.2-0.2c0.3,0,0.1,0.3,0.1,0.5C76,8.7,76.3,9.3,76.6,10
			c0.6,1.4,1.2,2.8,1.8,4.2c0.6,1.4,1.2,2.9,1.8,4.3c0.7,1.4,1.2,2.9,1.8,4.3c0.2,0.5,0.5,1,0.8,1.5c0.2,0.5,0.4,1,0.6,1.5
			c0.2,0.4,0.4,0.9,0.6,1.3c0.2,0.4,0.5,0.4,0.9,0.7C85.3,28.1,84.8,28.2,84.6,28.2z M76.6,21.3c-0.9-1.9-1.8-3.8-2.7-5.6
			c-0.2,1-0.4,2-0.6,2.9c-0.1,0.6-0.1,1.1-0.2,1.6c-0.1,0.5-0.3,1.1-0.3,1.6c0.6-0.1,1.3-0.3,1.9-0.3C75.3,21.4,75.9,21.4,76.6,21.3
			z M79.1,28.8c0.1,0,0.3,0,0.4,0C79.4,28.8,79,28.8,79.1,28.8z M79.1,28.8c0,0,0.1,0,0.2,0C79.2,28.8,79.2,28.8,79.1,28.8z
			 M79.5,28.8c-0.1,0-0.1,0-0.2,0C79.6,28.8,79.6,28.8,79.5,28.8z M79.5,28.8C79.5,28.8,79.5,28.8,79.5,28.8
			C79.5,28.8,79.5,28.8,79.5,28.8z"/>
		<path id="XMLID_101_" class="st0" d="M99.8,5.7c0.9,0,1.7,0,2.6,0c0.3,0,1.6-0.3,1.7,0.1c0,0.2-0.4,0.5-0.5,0.7
			c-0.2,0.3-0.2,0.6-0.2,0.9c0,0.7,0.1,1.6,0.1,2.4c-0.1,1.5-0.2,3.2,0,4.7c0.1,0.4,0,0.7,0,1.1c0,0.4,0.1,0.7,0.1,1.1
			c0.1,0.8-0.2,1.5,0,2.3c0.1,0.7,0,1.3,0,2c0,0.8,0,1.7,0,2.4c0,0.7,0,1.5,0,2.2c0,0.3,0.1,0.6,0.2,0.8c0.1,0.2,0.6,0.6,0.5,0.7
			c-0.1,0.1-0.7,0.1-0.9,0.2c-0.4,0.1-0.8,0-1.2,0c-0.8,0-1.8,0-2.6,0.1c-0.3,0-1.9,0.2-1.5-0.4c0.1-0.2,0.3-0.3,0.5-0.5
			c0.2-0.3,0.2-0.7,0.2-1c0-0.7-0.1-1.5-0.1-2.2c0-0.4-0.1-0.8-0.1-1.2c0-0.4,0-0.8,0-1.2c0-0.8-0.7-1.3-1.3-1.7
			c-0.7-0.6-1.3-1.3-1.9-1.9c-0.6-0.6-1.4-1.2-2-1.8c-0.3-0.3-0.5-0.6-0.8-0.8c-0.3-0.3-0.7-0.5-1-0.8c0,0.8,0,1.6,0,2.4
			c0,0.5,0.2,0.9,0.2,1.3c0,0.4,0,0.9,0,1.3c0,0.4,0,0.9,0,1.3c0,0.4,0.2,0.7,0.2,1.2c0,0.8,0.1,1.7,0.1,2.6c0,0.8-0.1,1.7,0.3,2.6
			c0.1,0.3,0.3,0.6,0.5,0.8c0.3,0.3-0.2,0.3-0.4,0.4c-0.9,0.3-1.9,0.1-2.8,0.2c-1,0.2-2.9,0.3-2.9,0.2c-0.1-0.2,0.6-0.9,0.6-1.4
			c0.1-0.8-0.1-1.6-0.2-2.4c-0.2-1.4-0.3-3-0.4-4.5c-0.2-1.5-0.3-3.2-0.2-4.7c0-1.5-0.3-3.1-0.4-4.5c-0.1-0.7,0-1.3-0.2-1.9
			c-0.1-0.3-0.2-0.6-0.3-0.8c-0.1-0.3-0.4-0.4-0.6-0.7c-0.4-0.4,0.6-0.5,0.8-0.5c0.9-0.1,1.9-0.4,2.7-0.3c0.8,0.1,1.6-0.1,2.4-0.2
			c0.1,0,0.8,0,0.7,0.2c0,0.1-0.3,0.4-0.2,0.5c0.3,0.6,0.9,1,1.3,1.5c0.6,0.6,1.1,1.2,1.7,1.8c0.6,0.6,1.3,1.2,1.9,1.8
			c0.6,0.5,1.1,1.1,1.8,1.5c0.2-1.5-0.1-2.9-0.1-4.3c0-0.7,0.2-1.4,0-2c-0.1-0.2-0.3-0.5-0.5-0.7c-0.1-0.1-0.4-0.3-0.4-0.4
			C97.3,5.6,99.5,5.7,99.8,5.7z"/>
		<path id="XMLID_94_" class="st0" d="M124.2,27.5c-0.6,0-1.2-0.1-1.8-0.1c-1.2-0.1-2.4-0.1-3.7-0.2c-0.1,0,0.1-0.3,0.1-0.3
			c0.2-0.2,0.2-0.5,0.2-0.8c0-0.7-0.3-1.5-0.4-2.2c0-0.3-0.1-0.4-0.3-0.4c-0.4,0-0.7-0.1-1.1-0.1c-0.4,0-0.7,0.1-1.1,0.1
			c-0.5,0-0.9-0.1-1.4-0.1c-0.3,0-0.8,0-1.1,0c-0.3,0-0.8,0-1,0c-0.3,0.1-0.2,0.5-0.3,0.7c-0.1,0.4-0.2,0.8-0.3,1.1
			c-0.1,0.3-0.3,0.6-0.3,0.9c0.1,0.2,0.3,0.5,0.3,0.7c0.2,0.3-0.6,0.3-0.7,0.4c-1,0.1-2.4,0-3.6-0.1c-0.3,0-0.7,0-1,0
			c-0.2,0-0.6,0.1-0.7-0.1c-0.2-0.2,0.3-0.8,0.4-1c0.7-1.1,1.2-2.2,1.5-3.5c0.4-1.6,0.9-3,1.4-4.6c0.4-1.5,1-3,1.5-4.4
			c0.5-1.5,1.1-3,1.5-4.5c0.2-0.7,0.5-1.4,0.5-2.2c0-0.3,0-0.6-0.1-0.9c0-0.2-0.1-0.5,0.1-0.6c0.2-0.1,0.8,0.1,1,0.1
			c0.5,0,0.9,0,1.4,0c0.9,0,1.9,0,2.8,0c0.4,0,0.8-0.1,1.2,0c0.3,0,0.1,0.3,0,0.5c-0.3,0.7-0.1,1.4,0.1,2.2c0.4,1.5,0.7,3,1.1,4.4
			c0.4,1.4,0.7,3,1.1,4.5c0.5,1.5,0.7,3,1.1,4.5c0.2,0.5,0.3,1.1,0.5,1.6c0.1,0.5,0.2,1.1,0.4,1.6c0.1,0.4,0.3,1,0.4,1.4
			c0.2,0.5,0.5,0.5,0.8,0.8C124.9,27.5,124.4,27.6,124.2,27.5z M117.4,19.5c-0.6-2-1.2-4-1.8-6c-0.3,0.9-0.7,1.9-1.1,2.8
			c-0.2,0.5-0.3,1.1-0.5,1.6c-0.2,0.5-0.4,1-0.6,1.6c0.6,0,1.3-0.1,1.9,0S116.7,19.4,117.4,19.5z M118.7,27.3c0.1,0,0.3,0,0.4,0
			C118.9,27.3,118.6,27.3,118.7,27.3z M118.7,27.3c0,0,0.1,0,0.2,0C118.8,27.3,118.7,27.3,118.7,27.3z M119.1,27.3
			c-0.1,0-0.1,0-0.2,0C119.1,27.3,119.1,27.3,119.1,27.3z M119.1,27.3C119.1,27.3,119.1,27.3,119.1,27.3
			C119.1,27.3,119.1,27.3,119.1,27.3z"/>
		<path id="XMLID_92_" class="st0" d="M126.6,27.5c0.3-0.2,0.5-0.4,0.5-0.7c0.2-0.8,0.1-1.6,0.2-2.4c0.1-0.7,0.1-1.5,0.1-2.2
			c0.1-0.8,0-1.6,0.2-2.4c0.2-0.7,0.1-1.4,0.2-2.1c0.1-0.8,0.2-1.6,0.2-2.4c0.1-1.6,0.2-3.2,0.4-4.8c0.1-0.7,0.1-1.4,0.2-2.1
			c0-0.3,0.1-0.6,0-0.9c-0.1-0.3-0.3-0.5-0.6-0.8c-0.4-0.5,1-0.3,1.3-0.3c1,0,1.9,0.1,2.9,0.2c0.7,0.1,1.5,0.2,2.2,0.3
			c0.8,0.1,0,0.6-0.1,0.9c-0.3,0.6-0.2,1.4-0.3,2c-0.2,0.8-0.3,1.7-0.4,2.5c-0.1,0.7-0.1,1.5-0.2,2.2c0,0.2-0.1,0.5,0.2,0.6
			c0.2,0.1,0.6,0.1,0.8,0.1c0.7,0,1.6,0.2,2.4,0.3c0.9,0.1,1.9,0.1,2.8,0.3c0.2,0,0.4,0.1,0.6,0.1c0.3,0.1,0.2-0.1,0.2-0.3
			c0.1-0.3,0.1-0.7,0.2-1.1c0.1-0.8,0.2-1.6,0.3-2.5c0.1-0.7,0.2-1.5,0.3-2.1c0.1-0.6,0.2-1.3-0.4-1.8c-0.6-0.5,0.7-0.4,1-0.4
			c0.9,0.1,1.8,0.2,2.8,0.3c0.6,0.1,1.3,0.1,1.9,0.3c0.3,0,0.6,0.1,0.7,0.3c0.2,0.2-0.2,0.4-0.3,0.5c-0.2,0.3-0.4,0.5-0.6,0.8
			c-0.1,0.3,0,0.6,0,1c0,0.8-0.2,1.6-0.4,2.5c-0.3,1.6-0.5,3.2-0.8,4.7c-0.3,1.6-0.4,3.3-0.8,5c-0.2,0.8-0.2,1.6-0.3,2.4
			c-0.1,0.8-0.3,1.5-0.5,2.2c-0.1,0.6,0,1.1,0.4,1.6c0.4,0.5-0.2,0.5-0.6,0.5c-0.4,0-0.8-0.2-1.1-0.2c-0.5,0-0.9-0.1-1.4-0.2
			c-1-0.1-3-0.3-2.9-0.4c0.1-0.2,0.4-0.4,0.6-0.7c0.2-0.3,0.2-0.7,0.3-1.1c0.1-0.7,0.2-1.5,0.3-2.2c0.2-1.4,0.4-3,0.6-4.4
			c0-0.2,0.1-0.4,0-0.5c-0.3-0.2-0.6-0.2-0.9-0.2c-0.8-0.2-1.7-0.2-2.5-0.3c-0.9-0.1-1.7-0.1-2.6-0.2c-0.4,0-0.9-0.1-1,0.3
			c-0.1,0.6,0,1.4-0.1,2.1c-0.1,0.8-0.2,1.6-0.3,2.3c-0.1,0.7-0.1,1.4-0.2,2.2c0,0.5-0.1,1,0.3,1.5c0,0.1,0.5,0.7,0.2,0.7
			c-0.3,0-0.7-0.1-0.9,0c-0.4,0-0.8-0.1-1.2-0.1c-0.8-0.1-1.7-0.2-2.5-0.2c-0.4,0-1.4,0.2-1.7-0.2c0,0,0,0,0.1,0.1c0,0,0,0,0,0
			c-0.1-0.2,0.1,0.2,0,0C126.1,27.7,126.4,27.5,126.6,27.5z"/>
		<path id="XMLID_89_" class="st0" d="M160,31.4c-0.7,0.3-1.4,0.6-2.2,0.7c-1.6,0.3-3.4,0-4.9-0.5c-1.4-0.4-2.4-1.3-3.4-2.3
			c-0.5-0.5-0.9-1-1.1-1.6c-0.3-0.6-0.6-1.2-0.8-1.8c-0.2-0.6-0.5-1.3-0.6-1.9c-0.1-0.7-0.2-1.5-0.3-2.3c0-0.7,0.1-1.5,0.2-2.2
			c0.2-0.7,0.2-1.6,0.5-2.3c0.4-1.3,1.1-2.5,1.9-3.6c0.4-0.5,0.8-1,1.3-1.4c0.5-0.4,0.8-0.8,1.3-1.1c0.6-0.3,0.9-0.7,1.5-0.9
			c0.7-0.2,1.3-0.5,2-0.6c0.7-0.1,1.5-0.1,2.2,0c0.8,0.1,1.7,0.2,2.4,0.5c1.2,0.5,2.5,1.2,3.3,2.2c0.8,0.9,1.8,1.9,2.1,3
			c0.2,0.6,0.3,1.2,0.5,1.8c0.2,0.6,0.4,1.2,0.4,1.8c0.4,4.2-1.3,8.8-4.8,11.3C161.1,30.7,160.6,31.2,160,31.4z M157.2,12.9
			c-0.6,0-1.2,0.2-1.7,0.5c-0.6,0.4-1.3,0.9-1.7,1.5c-0.9,1.2-1.4,2.7-1.9,4.1c-0.5,1.4-0.4,2.9-0.4,4.5c0,1.4,0.5,2.7,1.4,3.8
			c0.9,1.1,2.3,1.5,3.7,1.3c1.5-0.3,2.6-1.2,3.3-2.3c0.4-0.7,0.8-1.4,1.1-2.1c1.2-2.8,1.3-6.6-0.3-9.3
			C159.8,13.7,158.7,12.9,157.2,12.9z"/>
		<path id="XMLID_86_" class="st0" d="M172,29.4c-0.2,0.7-0.4,1.5-0.5,2.2c-0.2,0.7-0.5,1.6-0.5,2.4c0,0.3,0.6,1.3,0,1.2
			c-0.2,0-0.5-0.1-0.7-0.2c-0.4-0.1-0.9-0.1-1.3-0.3c-1-0.4-2.1-0.5-3.1-0.8c-0.2-0.1-0.7-0.2-0.3-0.5c0.2-0.2,0.4-0.3,0.5-0.6
			c0.1-0.4,0.3-0.8,0.4-1.3c0.5-1.5,0.8-3.1,1.2-4.7c0.4-1.5,0.9-3,1.2-4.5c0.1-0.6,0.6-1.2,0.7-1.8c0-0.7,0.3-1.5,0.4-2.2
			c0.2-1.3,0.9-2.7,0.7-4.1c0-0.3-0.1-0.6-0.3-0.8c-0.1-0.2-0.4-0.4-0.1-0.4c0.8,0,1.5,0.1,2.3,0.3c0.8,0.2,1.7,0.4,2.6,0.6
			c0.9,0.2,1.8,0.4,2.7,0.7c0.8,0.2,1.5,0.4,2.3,0.6c0.8,0.2,1.5,0.3,2.2,0.6c1.2,0.5,2.3,1.9,2.4,3c0.1,1.4-0.6,2.6-1.6,3.6
			c-0.5,0.5-1,0.9-1.6,1.2c-0.7,0.4-1.2,0.7-2,1c0,0.6,0.1,2,0.1,3.7c0,0.9-0.1,1.9,0,2.8c0,1.6,0,2.9,0.1,3.3
			c0.1,0.6,0.2,1.3,0.3,1.9c0,0.4,0.2,0.9,0.5,1.2c0.2,0.3,0.4,0.5-0.1,0.4c-0.7-0.1-1.3-0.4-1.9-0.6c-0.6-0.2-1.2-0.4-1.9-0.5
			c-0.6-0.1-1.1-0.4-1.6-0.6c-0.5-0.2-0.1-0.2,0-0.6c0,0,0.3-1.4,0.3-2.6c0-2.1,0-4.3-0.1-6.4c-0.7,0.3-1.4,0.6-2,0.9
			C172.5,28.1,172.2,28.6,172,29.4z M178,21.3c0.5-0.2,1.1-0.5,1.2-1.1c0.1-0.5-0.1-1.1-0.6-1.5c-0.6-0.4-1.6-0.5-2.3-0.7
			c-0.2,0-0.4-0.1-0.6-0.2c-0.2-0.1-0.4-0.2-0.5,0c-0.2,0.3-0.2,0.7-0.3,1c-0.2,0.7-0.3,1.5-0.6,2.1c-0.3,0.7-0.3,1.5-0.4,2.2
			c0,0,1.4-0.6,2.1-0.9C176.7,22.1,177.4,21.6,178,21.3z"/>
		<path id="XMLID_84_" class="st0" d="M189.6,18.1c0.4,0.1,0.7,0.3,1,0.4c0.5,0.2,0.9,0.3,1.3,0.5c0.3,0.1,1.9,0.4,1.7,0.8
			c-0.1,0.2-0.4,0.3-0.5,0.4c-0.3,0.2-0.4,0.5-0.5,0.8c-0.3,0.8-0.6,1.6-0.8,2.4c-0.6,1.5-1.1,3-1.6,4.6c-0.2,0.7-0.6,1.5-0.7,2.2
			c-0.2,0.8-0.5,1.5-0.8,2.3c-0.2,0.7-0.5,1.4-0.7,2.1c-0.3,0.7-0.4,1.4-0.6,2.1c-0.2,0.7-0.6,1.3-0.6,2.1c0,0.3,0.7,1.4,0,1.4
			c-0.3,0-0.6-0.2-0.9-0.3c-0.4-0.1-0.8-0.2-1.2-0.3c-0.9-0.3-1.7-0.5-2.5-0.8c-0.3-0.1-0.8-0.2-1-0.5c-0.2-0.2,0.3-0.4,0.4-0.5
			c0.7-0.4,0.8-1.5,1-2.2c0.6-2.1,1.4-4.1,2.1-6.2c0.3-1,0.6-2.1,0.9-3.1c0.1-0.5,0.2-1,0.4-1.5c0.2-0.5,0.4-1.1,0.6-1.6
			c0.3-1,0.7-2,0.9-3c0.1-0.4,0.2-0.8,0.1-1.3c0-0.2-0.1-0.4-0.3-0.6c-0.1-0.1-0.1-0.2-0.1-0.2c0.1-0.2,0.9,0,1.2,0.1
			C188.9,18,189.3,18,189.6,18.1z"/>
		<path id="XMLID_77_" class="st0" d="M205.7,47.1c-0.5-0.2-1.1-0.5-1.7-0.7c-1.1-0.5-2.3-0.9-3.5-1.4c-0.1-0.1,0.2-0.3,0.2-0.3
			c0.3-0.2,0.4-0.4,0.5-0.7c0.2-0.7,0.2-1.5,0.3-2.2c0.1-0.2,0.1-0.4-0.2-0.5c-0.3-0.1-0.7-0.3-1.1-0.5c-0.3-0.1-0.7-0.2-1.1-0.3
			c-0.4-0.2-0.9-0.4-1.3-0.6c-0.3-0.1-0.7-0.3-1.1-0.4c-0.3-0.1-0.7-0.3-1-0.3c-0.3,0-0.4,0.4-0.5,0.5c-0.2,0.3-0.4,0.7-0.7,0.9
			c-0.2,0.2-0.5,0.5-0.6,0.8c0,0.2,0.1,0.5,0.1,0.8c0.1,0.4-0.6,0.1-0.8,0.1c-1-0.2-2.3-0.9-3.4-1.3c-0.3-0.1-0.6-0.3-1-0.4
			c-0.2-0.1-0.6-0.1-0.6-0.3c-0.1-0.3,0.5-0.7,0.7-0.8c1.1-0.8,1.9-1.7,2.6-2.8c0.9-1.3,1.9-2.5,2.8-3.8c0.9-1.3,2-2.4,2.9-3.6
			c1-1.2,2.1-2.4,2.9-3.7c0.4-0.6,0.9-1.2,1.2-1.9c0.1-0.3,0.2-0.5,0.2-0.8c0.1-0.2,0-0.5,0.2-0.5c0.3,0,0.7,0.3,1,0.4
			c0.5,0.2,0.9,0.3,1.3,0.5c0.9,0.3,1.8,0.7,2.7,1c0.4,0.1,0.8,0.2,1.2,0.4c0.3,0.1,0,0.3-0.1,0.5c-0.5,0.6-0.6,1.3-0.6,2.1
			c-0.1,1.5-0.3,3-0.4,4.6c-0.1,1.5-0.4,3.1-0.4,4.6c-0.1,1.5-0.3,3.1-0.4,4.6c0,0.6,0,1.1-0.1,1.7c0,0.5-0.1,1.1-0.2,1.6
			c0,0.5-0.1,1-0.1,1.5c0,0.5,0.3,0.7,0.4,1C206.4,47.3,205.9,47.2,205.7,47.1z M201.9,37.1c0.1-2.1,0.2-4.2,0.3-6.2
			c-0.6,0.8-1.3,1.5-1.9,2.3c-0.4,0.4-0.7,0.9-1,1.3c-0.3,0.4-0.8,0.8-1.1,1.3c0.6,0.2,1.2,0.4,1.9,0.6
			C200.7,36.6,201.3,36.9,201.9,37.1z M200.5,44.9c0.1,0.1,0.3,0.1,0.4,0.2C200.8,45,200.5,44.9,200.5,44.9z M200.5,44.9
			c0,0,0.1,0.1,0.2,0.1C200.7,45,200.6,44.9,200.5,44.9z M200.9,45.1c-0.1,0-0.1-0.1-0.2-0.1C201,45.1,201,45.1,200.9,45.1z
			 M200.9,45.1C201,45.1,201,45.1,200.9,45.1C200.9,45.1,200.9,45.1,200.9,45.1z"/>
	</g>
</g>
</svg>
